<svg width="173" height="40" viewBox="0 0 173 40" fill="none" xmlns="http://www.w3.org/2000/svg">
<g clip-path="url(#clip0)">
<path d="M19.808 39.9984C30.7476 39.9984 39.6159 31.0445 39.6159 19.9992C39.6159 8.95395 30.7476 0 19.808 0C8.86832 0 0 8.95395 0 19.9992C0 31.0445 8.86832 39.9984 19.808 39.9984Z" fill="url(#paint0_linear)"/>
<path d="M5.50879 11.4002L16.5295 6.78418L20.6244 17.526L25.8736 29.5233L21.8804 36.3913L15.2673 35.1248L5.50879 11.4002Z" fill="#242120"/>
<path d="M18.0938 3.91309L29.9733 4.70901L28.381 32.6012L22.1246 36.6187L16.3999 31.8684L18.0938 3.91309Z" fill="white"/>
<path d="M22.3512 34.4902C22.9006 34.4902 23.346 34.0511 23.346 33.5095C23.346 32.9679 22.9006 32.5288 22.3512 32.5288C21.8018 32.5288 21.3564 32.9679 21.3564 33.5095C21.3564 34.0511 21.8018 34.4902 22.3512 34.4902Z" fill="#242120"/>
<path d="M52.6606 31.311C51.4917 28.8895 50.2925 26.1101 49.0631 22.9727C47.7798 19.6625 46.6622 16.2892 45.7144 12.8657H50.2237C50.4802 13.9006 50.7784 15.0114 51.1184 16.1979C51.4583 17.3844 51.8207 18.5714 52.2054 19.759C52.5902 20.9445 52.9875 22.0962 53.3973 23.2143C53.8071 24.3324 54.1872 25.3368 54.5375 26.2275C54.8869 25.3347 55.2607 24.3303 55.659 23.2143C56.0573 22.0984 56.4484 20.9466 56.8321 19.759C57.2179 18.5714 57.5865 17.3844 57.9379 16.1979C58.2893 15.0114 58.5928 13.9006 58.8482 12.8657H63.2152C62.2679 16.2892 61.1508 19.6625 59.868 22.9727C58.6386 26.1111 57.4395 28.8906 56.2706 31.311H52.6606Z" fill="#242120"/>
<path d="M72.3981 12.4141C73.7943 12.4141 74.97 12.5899 75.9252 12.9416C76.7931 13.2412 77.5758 13.7496 78.2056 14.4229C78.793 15.0846 79.2141 15.8791 79.4335 16.7396C79.6872 17.7114 79.8108 18.7131 79.801 19.718V30.8941C79.1483 31.0362 78.165 31.2068 76.8511 31.4058C75.3762 31.6172 73.8877 31.7175 72.3981 31.7058C71.3884 31.7156 70.381 31.6096 69.395 31.39C68.5603 31.2115 67.7701 30.8639 67.0723 30.3682C66.4281 29.8932 65.9119 29.2629 65.5707 28.5348C65.2089 27.7831 65.0285 26.8545 65.0295 25.749C65.0295 24.6962 65.2329 23.8013 65.6395 23.0644C66.0406 22.3432 66.6103 21.7322 67.2991 21.2846C68.0414 20.8079 68.8643 20.4734 69.7266 20.2976C70.6731 20.0943 71.6384 19.9937 72.6061 19.9975C73.0964 19.9992 73.5862 20.0287 74.0733 20.086C74.6262 20.1516 75.1747 20.2513 75.7156 20.3844V19.6769C75.7181 19.2012 75.6592 18.7271 75.5404 18.2667C75.4305 17.8164 75.2121 17.4006 74.9045 17.0562C74.597 16.7118 74.2099 16.4495 73.7776 16.2927C73.2003 16.0879 72.5906 15.9921 71.9789 16.01C71.0784 16.0041 70.1789 16.0748 69.2902 16.2216C68.6136 16.3273 67.9474 16.4922 67.2991 16.7143L66.7751 13.2653C67.543 13.0218 68.327 12.8334 69.1213 12.7015C70.2029 12.5078 71.2995 12.4116 72.3981 12.4141ZM72.7484 28.3153C74.0519 28.3153 75.0425 28.2447 75.7203 28.1036V23.3723C75.387 23.281 75.0485 23.2103 74.7067 23.1607C74.2211 23.0874 73.7306 23.052 73.2396 23.0549C72.7685 23.0563 72.298 23.0917 71.8319 23.1607C71.3846 23.2227 70.9494 23.3537 70.5415 23.5492C70.1693 23.726 69.8495 23.9983 69.614 24.3388C69.3697 24.7215 69.2485 25.171 69.2667 25.6258C69.2667 26.6365 69.5796 27.3361 70.2052 27.7246C70.8308 28.1131 71.6786 28.31 72.7484 28.3153Z" fill="#242120"/>
<path d="M89.5424 28.2443C90.6602 28.2443 91.4757 28.109 91.9887 27.8384C92.5017 27.5679 92.7577 27.1041 92.7567 26.4472C92.7567 25.8344 92.483 25.3291 91.9355 24.9311C91.3881 24.5331 90.4856 24.0978 89.228 23.6251C88.5086 23.3644 87.8037 23.0645 87.1165 22.7265C86.5156 22.4369 85.9571 22.0649 85.457 21.6211C84.9898 21.1929 84.6168 20.6705 84.3621 20.0877C84.0748 19.3877 83.9378 18.6341 83.9601 17.8767C83.9601 16.1859 84.5774 14.852 85.812 13.875C87.0466 12.898 88.7223 12.4106 90.8391 12.4127C91.8698 12.4098 92.8983 12.5103 93.9094 12.7127C94.656 12.8507 95.3911 13.0455 96.1086 13.2954L95.3406 16.7508C94.7652 16.503 94.169 16.308 93.5591 16.168C92.7343 15.9814 91.8907 15.8929 91.0455 15.9043C90.1842 15.9043 89.4856 16.0512 88.9496 16.3449C88.6995 16.468 88.4902 16.662 88.3475 16.9032C88.2047 17.1443 88.1346 17.4223 88.1457 17.703C88.14 17.9813 88.1934 18.2575 88.3021 18.5132C88.4255 18.7729 88.6116 18.9972 88.8433 19.1654C89.1588 19.4007 89.498 19.6018 89.8552 19.7655C90.3565 19.9983 90.8698 20.2038 91.3928 20.3814C92.2628 20.6991 93.1136 21.0683 93.9407 21.4868C94.5764 21.8062 95.1599 22.2221 95.6706 22.7202C96.1138 23.1622 96.4536 23.6985 96.6654 24.2899C96.8891 24.9715 96.9949 25.6868 96.9782 26.4045C96.9782 28.1669 96.3322 29.5008 95.0403 30.4063C93.7483 31.3117 91.9032 31.7644 89.5049 31.7644C87.9001 31.7644 86.6082 31.6291 85.629 31.3585C84.9313 31.1785 84.2437 30.9608 83.5691 30.7063L84.3058 27.1515C85.0411 27.4453 85.7939 27.6927 86.5597 27.8921C87.5346 28.1396 88.5373 28.2579 89.5424 28.2443Z" fill="#242120"/>
<path d="M105.64 7.4777C105.64 8.27836 105.384 8.91163 104.872 9.38224C104.38 9.84451 103.73 10.0969 103.058 10.0866C102.374 10.1011 101.711 9.84884 101.206 9.38224C100.693 8.90847 100.438 8.27679 100.438 7.4777C100.438 6.67862 100.693 6.00903 101.206 5.53842C101.711 5.07182 102.374 4.81955 103.058 4.83409C103.73 4.82462 104.38 5.07686 104.872 5.53842C105.384 6.00903 105.64 6.65546 105.64 7.4777ZM105.187 31.3113H100.964V12.8723H105.187V31.3113Z" fill="#242120"/>
<path d="M110.354 8.00658L114.578 7.30225V12.8721H121.072V16.4333H114.581V23.9425C114.581 25.4238 114.813 26.4813 115.278 27.1151C115.743 27.7489 116.535 28.0647 117.653 28.0626C118.341 28.0721 119.028 27.9887 119.695 27.8147C120.173 27.688 120.642 27.5351 121.103 27.3567L121.801 30.741C121.175 30.9995 120.533 31.2173 119.88 31.3932C118.971 31.6351 118.034 31.7525 117.094 31.7422C115.79 31.7422 114.701 31.5653 113.828 31.2116C113.011 30.9009 112.293 30.3707 111.753 29.6782C111.217 28.9592 110.846 28.1283 110.669 27.2462C110.448 26.1738 110.343 25.0804 110.356 23.9851L110.354 8.00658Z" fill="#242120"/>
<path d="M129.875 7.4777C129.875 8.27836 129.618 8.91163 129.107 9.38224C128.615 9.84451 127.965 10.0969 127.292 10.0866C126.609 10.1007 125.946 9.84846 125.442 9.38224C124.929 8.90847 124.674 8.27679 124.674 7.4777C124.674 6.67862 124.929 6.00903 125.442 5.53842C125.947 5.07182 126.61 4.81955 127.294 4.83409C127.966 4.82462 128.616 5.07686 129.108 5.53842C129.619 6.00903 129.875 6.65546 129.875 7.4777ZM129.421 31.3113H125.198V12.8723H129.421V31.3113Z" fill="#242120"/>
<path d="M135.227 30.0051C135.235 30.2149 135.198 30.4239 135.119 30.6181C135.04 30.8123 134.92 30.9872 134.769 31.1311C134.466 31.4104 134.07 31.5653 133.659 31.5653C133.249 31.5653 132.853 31.4104 132.55 31.1311C132.4 30.986 132.283 30.8107 132.205 30.6167C132.128 30.4227 132.091 30.2143 132.099 30.0051C132.092 29.7947 132.129 29.5851 132.206 29.3897C132.284 29.1943 132.401 29.0172 132.55 28.8697C132.85 28.5845 133.247 28.4258 133.659 28.4258C134.072 28.4258 134.469 28.5845 134.769 28.8697C134.92 29.016 135.039 29.1927 135.117 29.3883C135.196 29.5839 135.234 29.794 135.227 30.0051Z" fill="#EE3C24"/>
<path d="M137.203 26.158C137.197 25.4291 137.316 24.7046 137.554 24.0166C137.773 23.3786 138.115 22.7911 138.562 22.2889C139.006 21.7972 139.549 21.4068 140.154 21.144C140.823 20.8588 141.543 20.7173 142.269 20.7287C143.206 20.7239 144.136 20.9053 145.004 21.2624L144.496 23.2144C144.196 23.0875 143.885 22.9886 143.567 22.919C143.204 22.8382 142.834 22.7985 142.463 22.8006C141.537 22.8006 140.833 23.0933 140.351 23.6786C139.869 24.264 139.628 25.0899 139.627 26.1564C139.627 27.1829 139.855 27.9957 140.312 28.5948C140.769 29.1938 141.538 29.4933 142.619 29.4933C143.02 29.4937 143.419 29.4541 143.812 29.3749C144.16 29.3089 144.5 29.21 144.829 29.0796L145.162 31.0536C144.784 31.2217 144.386 31.3411 143.978 31.4089C143.44 31.5154 142.893 31.5683 142.345 31.5668C141.567 31.5837 140.793 31.4464 140.066 31.1626C139.454 30.9152 138.906 30.5301 138.463 30.0366C138.03 29.5386 137.706 28.9528 137.515 28.3184C137.302 27.6187 137.196 26.8901 137.203 26.158Z" fill="#EE3C24"/>
<path d="M156.035 26.1392C156.044 26.8977 155.926 27.6524 155.684 28.3706C155.472 29.0048 155.134 29.5888 154.691 30.0872C154.257 30.5642 153.727 30.9412 153.136 31.1927C152.502 31.4617 151.819 31.5961 151.131 31.5875C150.447 31.5968 149.767 31.4623 149.137 31.1927C148.55 30.9391 148.023 30.5622 147.592 30.0872C147.147 29.588 146.805 29.0045 146.586 28.3706C146.337 27.654 146.214 26.8986 146.225 26.1392C146.214 25.3833 146.336 24.6315 146.586 23.9188C146.807 23.2858 147.153 22.7045 147.603 22.2101C148.037 21.7377 148.567 21.3641 149.156 21.1141C149.782 20.8527 150.454 20.7216 151.131 20.7288C151.812 20.722 152.487 20.853 153.116 21.1141C153.71 21.3598 154.244 21.7339 154.68 22.2101C155.124 22.7072 155.465 23.2879 155.686 23.9188C155.931 24.6322 156.05 25.3841 156.035 26.1392ZM153.612 26.1392C153.612 25.1127 153.393 24.2999 152.956 23.7009C152.739 23.4208 152.461 23.1943 152.144 23.0386C151.828 22.8829 151.48 22.8019 151.127 22.8019C150.775 22.8019 150.427 22.8829 150.11 23.0386C149.793 23.1943 149.515 23.4208 149.298 23.7009C148.862 24.2989 148.644 25.1116 148.643 26.1392C148.642 27.1667 148.86 27.9895 149.298 28.6075C149.514 28.89 149.791 29.1188 150.108 29.2762C150.425 29.4335 150.774 29.5154 151.127 29.5154C151.481 29.5154 151.829 29.4335 152.146 29.2762C152.464 29.1188 152.741 28.89 152.956 28.6075C153.393 28.0011 153.612 27.1783 153.612 26.1392Z" fill="#EE3C24"/>
<path d="M164.306 25.8816C164.306 24.8035 164.172 24.0239 163.905 23.5428C163.638 23.0616 163.139 22.821 162.408 22.821C162.121 22.8232 161.833 22.8432 161.548 22.8811C161.235 22.9205 161.001 22.9537 160.844 22.979V31.3109H158.478V21.3192C159.067 21.1594 159.664 21.0339 160.267 20.9434C161.04 20.8232 161.822 20.7641 162.604 20.7665C163.193 20.7473 163.78 20.841 164.334 21.0429C164.754 21.2072 165.136 21.456 165.458 21.774C165.633 21.6494 165.816 21.537 166.006 21.4377C166.246 21.3121 166.495 21.2034 166.75 21.1123C167.034 21.0099 167.325 20.9276 167.62 20.866C167.925 20.7998 168.237 20.7664 168.549 20.7665C169.221 20.7435 169.891 20.8613 170.515 21.1123C170.998 21.3175 171.417 21.6516 171.726 22.0788C172.035 22.5285 172.243 23.0411 172.334 23.5807C172.449 24.2158 172.504 24.8602 172.5 25.5057V31.3093H170.134V25.8816C170.134 24.8035 170.003 24.0239 169.743 23.5428C169.482 23.0616 168.98 22.821 168.236 22.821C167.87 22.8192 167.506 22.8828 167.162 23.009C166.894 23.0988 166.637 23.2213 166.398 23.3738C166.505 23.7145 166.578 24.0653 166.614 24.4208C166.654 24.8143 166.673 25.2097 166.672 25.6052V31.3109H164.306V25.8816Z" fill="#EE3C24"/>
</g>
<defs>
<linearGradient id="paint0_linear" x1="26.5853" y1="38.7982" x2="12.8005" y2="1.28693" gradientUnits="userSpaceOnUse">
<stop stop-color="#ED3424"/>
<stop offset="1" stop-color="#F4A81C"/>
</linearGradient>
<clipPath id="clip0">
<rect width="172.5" height="40" fill="white"/>
</clipPath>
</defs>
</svg>
